<?xml version="1.0" encoding="UTF-8" standalone="no"?>
<!DOCTYPE svg PUBLIC "-//W3C//DTD SVG 1.1//EN"
 "http://www.w3.org/Graphics/SVG/1.1/DTD/svg11.dtd">
<!-- Generated by graphviz version 2.38.0 (20140413.2041)
 -->
<!-- Title: G Pages: 1 -->
<svg width="1185pt" height="1069pt"
 viewBox="0.00 0.00 1184.78 1068.50" xmlns="http://www.w3.org/2000/svg" xmlns:xlink="http://www.w3.org/1999/xlink">
<g id="graph0" class="graph" transform="scale(1 1) rotate(0) translate(4 1064.5)">
<title>G</title>
<polygon fill="white" stroke="none" points="-4,4 -4,-1064.5 1180.78,-1064.5 1180.78,4 -4,4"/>
<text text-anchor="middle" x="588.389" y="-1045.3" font-family="Times,serif" font-size="14.00">Foris controller &#45; Data flow</text>
<g id="clust1" class="cluster"><title>clusterA</title>
<polygon fill="none" stroke="black" points="126.198,-62 126.198,-230 230.991,-230 230.991,-62 126.198,-62"/>
<text text-anchor="middle" x="178.595" y="-214.8" font-family="Times,serif" font-size="14.00">Buses</text>
</g>
<g id="clust2" class="cluster"><title>clusterAA</title>
<polygon fill="none" stroke="black" points="134.198,-70 134.198,-199 222.991,-199 222.991,-70 134.198,-70"/>
<text text-anchor="middle" x="178.595" y="-183.8" font-family="Times,serif" font-size="14.00">ubus</text>
</g>
<g id="clust3" class="cluster"><title>clusterB</title>
<polygon fill="none" stroke="black" points="324.149,-70 324.149,-199 435.04,-199 435.04,-70 324.149,-70"/>
<text text-anchor="middle" x="379.595" y="-183.8" font-family="Times,serif" font-size="14.00">Foris Schema</text>
</g>
<g id="clust4" class="cluster"><title>clusterC</title>
<polygon fill="none" stroke="black" points="536.047,-11 536.047,-348 826.186,-348 826.186,-11 536.047,-11"/>
<text text-anchor="middle" x="681.116" y="-332.8" font-family="Times,serif" font-size="14.00">Modules</text>
</g>
<g id="clust5" class="cluster"><title>clusterD</title>
<polygon fill="lightgreen" stroke="black" points="547.595,-19 547.595,-164 818.186,-164 818.186,-19 547.595,-19"/>
</g>
<g id="clust6" class="cluster"><title>clusterDA</title>
<polygon fill="lightgreen" stroke="black" points="694.095,-27 694.095,-156 810.186,-156 810.186,-27 694.095,-27"/>
<text text-anchor="middle" x="752.14" y="-140.8" font-family="Times,serif" font-size="14.00">Handlers</text>
</g>
<g id="clust7" class="cluster"><title>clusterE</title>
<polygon fill="lightblue" stroke="black" points="544.047,-172 544.047,-317 818.186,-317 818.186,-172 544.047,-172"/>
</g>
<g id="clust8" class="cluster"><title>clusterDB</title>
<polygon fill="lightblue" stroke="black" points="694.095,-180 694.095,-309 810.186,-309 810.186,-180 694.095,-180"/>
<text text-anchor="middle" x="752.14" y="-293.8" font-family="Times,serif" font-size="14.00">Handlers</text>
</g>
<g id="clust9" class="cluster"><title>clusterF</title>
<polygon fill="none" stroke="black" points="902.638,-8 902.638,-353 1168.78,-353 1168.78,-8 902.638,-8"/>
<text text-anchor="middle" x="1035.71" y="-337.8" font-family="Times,serif" font-size="14.00">Backends</text>
</g>
<!-- listener -->
<g id="node1" class="node"><title>listener</title>
<ellipse fill="none" stroke="black" cx="178.595" cy="-150" rx="36.2938" ry="18"/>
<text text-anchor="middle" x="178.595" y="-146.3" font-family="Times,serif" font-size="14.00">listener</text>
</g>
<!-- message_router -->
<g id="node3" class="node"><title>message_router</title>
<ellipse fill="none" stroke="black" cx="379.595" cy="-225" rx="68.4888" ry="18"/>
<text text-anchor="middle" x="379.595" y="-221.3" font-family="Times,serif" font-size="14.00">Message Router</text>
</g>
<!-- listener&#45;&gt;message_router -->
<g id="edge6" class="edge"><title>listener&#45;&gt;message_router</title>
<path fill="none" stroke="black" d="M204.545,-162.819C227.8,-174.411 263.668,-191.392 296.095,-203 303.356,-205.6 311.074,-208.051 318.762,-210.308"/>
<polygon fill="black" stroke="black" points="317.873,-213.694 328.449,-213.058 319.785,-206.96 317.873,-213.694"/>
</g>
<!-- sender -->
<g id="node2" class="node"><title>sender</title>
<ellipse fill="none" stroke="black" cx="178.595" cy="-96" rx="33.5952" ry="18"/>
<text text-anchor="middle" x="178.595" y="-92.3" font-family="Times,serif" font-size="14.00">sender</text>
</g>
<!-- module1 -->
<g id="node6" class="node"><title>module1</title>
<ellipse fill="none" stroke="black" cx="582.595" cy="-69" rx="27" ry="18"/>
<text text-anchor="middle" x="582.595" y="-65.3" font-family="Times,serif" font-size="14.00">dns</text>
</g>
<!-- message_router&#45;&gt;module1 -->
<g id="edge8" class="edge"><title>message_router&#45;&gt;module1</title>
<path fill="none" stroke="black" d="M436.586,-214.855C445.834,-211.857 455.025,-207.988 463.095,-203 475.292,-195.46 531.569,-129.052 561.974,-92.6427"/>
<polygon fill="black" stroke="black" points="565.038,-94.4329 568.751,-84.5102 559.66,-89.9514 565.038,-94.4329"/>
</g>
<!-- module2 -->
<g id="node9" class="node"><title>module2</title>
<ellipse fill="none" stroke="black" cx="582.595" cy="-225" rx="30.5947" ry="18"/>
<text text-anchor="middle" x="582.595" y="-221.3" font-family="Times,serif" font-size="14.00">about</text>
</g>
<!-- message_router&#45;&gt;module2 -->
<g id="edge9" class="edge"><title>message_router&#45;&gt;module2</title>
<path fill="none" stroke="black" d="M448.084,-225C479.195,-225 515.054,-225 541.77,-225"/>
<polygon fill="black" stroke="black" points="541.893,-228.5 551.893,-225 541.893,-221.5 541.893,-228.5"/>
</g>
<!-- schema1 -->
<g id="node4" class="node"><title>schema1</title>
<ellipse fill="lightgreen" stroke="black" cx="379.595" cy="-150" rx="40.0939" ry="18"/>
<text text-anchor="middle" x="379.595" y="-146.3" font-family="Times,serif" font-size="14.00">dns.json</text>
</g>
<!-- schema1&#45;&gt;message_router -->
<g id="edge7" class="edge"><title>schema1&#45;&gt;message_router</title>
<path fill="none" stroke="black" d="M379.595,-199C379.595,-200.949 379.595,-202.897 379.595,-204.846"/>
<polygon fill="black" stroke="black" points="376.095,-196.795 379.595,-206.795 383.095,-196.795 376.095,-196.795"/>
</g>
<!-- schema2 -->
<g id="node5" class="node"><title>schema2</title>
<ellipse fill="lightblue" stroke="black" cx="379.595" cy="-96" rx="47.3916" ry="18"/>
<text text-anchor="middle" x="379.595" y="-92.3" font-family="Times,serif" font-size="14.00">about.json</text>
</g>
<!-- schema2&#45;&gt;sender -->
<g id="edge20" class="edge"><title>schema2&#45;&gt;sender</title>
<path fill="none" stroke="black" d="M324.162,-96C292.148,-96 252.241,-96 222.472,-96"/>
<polygon fill="black" stroke="black" points="222.455,-92.5001 212.455,-96 222.455,-99.5001 222.455,-92.5001"/>
</g>
<!-- module1&#45;&gt;sender -->
<g id="edge23" class="edge"><title>module1&#45;&gt;sender</title>
<path fill="none" stroke="black" d="M555.867,-66.3953C505.67,-61.8277 391.249,-53.9449 296.095,-66 269.502,-69.369 240.292,-76.9003 217.772,-83.5736"/>
<polygon fill="black" stroke="black" points="216.482,-80.3075 207.93,-86.5613 218.515,-87.0057 216.482,-80.3075"/>
</g>
<!-- openwrt1 -->
<g id="node7" class="node"><title>openwrt1</title>
<ellipse fill="none" stroke="black" cx="752.14" cy="-107" rx="50.0912" ry="18"/>
<text text-anchor="middle" x="752.14" y="-103.3" font-family="Times,serif" font-size="14.00">OpenWRT</text>
</g>
<!-- module1&#45;&gt;openwrt1 -->
<g id="edge1" class="edge"><title>module1&#45;&gt;openwrt1</title>
<path fill="none" stroke="black" d="M608.317,-74.607C632.197,-80.0232 669.102,-88.3935 699.416,-95.2687"/>
<polygon fill="black" stroke="black" points="698.888,-98.7379 709.415,-97.5365 700.437,-91.9113 698.888,-98.7379"/>
</g>
<!-- debian1 -->
<g id="node8" class="node"><title>debian1</title>
<ellipse fill="none" stroke="black" cx="752.14" cy="-53" rx="36.2938" ry="18"/>
<text text-anchor="middle" x="752.14" y="-49.3" font-family="Times,serif" font-size="14.00">Debian</text>
</g>
<!-- module1&#45;&gt;debian1 -->
<g id="edge2" class="edge"><title>module1&#45;&gt;debian1</title>
<path fill="none" stroke="black" d="M609.406,-66.5351C635.137,-64.0779 675.177,-60.2542 706.145,-57.2969"/>
<polygon fill="black" stroke="black" points="706.644,-60.7653 716.266,-56.3304 705.978,-53.797 706.644,-60.7653"/>
</g>
<!-- backend1 -->
<g id="node18" class="node"><title>backend1</title>
<ellipse fill="lightgreen" stroke="black" cx="941.186" cy="-96" rx="27" ry="18"/>
<text text-anchor="middle" x="941.186" y="-92.3" font-family="Times,serif" font-size="14.00">dns</text>
</g>
<!-- openwrt1&#45;&gt;backend1 -->
<g id="edge10" class="edge"><title>openwrt1&#45;&gt;backend1</title>
<path fill="none" stroke="black" d="M801.796,-104.139C833.802,-102.256 874.996,-99.8337 904.092,-98.1227"/>
<polygon fill="black" stroke="black" points="904.447,-101.608 914.224,-97.5268 904.036,-94.62 904.447,-101.608"/>
</g>
<!-- debian1&#45;&gt;backend1 -->
<g id="edge11" class="edge"><title>debian1&#45;&gt;backend1</title>
<path fill="none" stroke="black" d="M785.721,-60.49C819.205,-68.1876 871.149,-80.129 905.412,-88.0059"/>
<polygon fill="black" stroke="black" points="904.908,-91.4812 915.438,-90.3107 906.476,-84.6592 904.908,-91.4812"/>
</g>
<!-- openwrt2 -->
<g id="node10" class="node"><title>openwrt2</title>
<ellipse fill="none" stroke="black" cx="752.14" cy="-260" rx="50.0912" ry="18"/>
<text text-anchor="middle" x="752.14" y="-256.3" font-family="Times,serif" font-size="14.00">OpenWRT</text>
</g>
<!-- module2&#45;&gt;openwrt2 -->
<g id="edge3" class="edge"><title>module2&#45;&gt;openwrt2</title>
<path fill="none" stroke="black" d="M611.638,-230.858C635.304,-235.802 669.83,-243.014 698.612,-249.027"/>
<polygon fill="black" stroke="black" points="698.022,-252.479 708.526,-251.098 699.453,-245.627 698.022,-252.479"/>
</g>
<!-- debian2 -->
<g id="node11" class="node"><title>debian2</title>
<ellipse fill="none" stroke="black" cx="752.14" cy="-206" rx="36.2938" ry="18"/>
<text text-anchor="middle" x="752.14" y="-202.3" font-family="Times,serif" font-size="14.00">Debian</text>
</g>
<!-- module2&#45;&gt;debian2 -->
<g id="edge4" class="edge"><title>module2&#45;&gt;debian2</title>
<path fill="none" stroke="black" d="M612.779,-221.69C638.61,-218.761 676.706,-214.441 706.387,-211.075"/>
<polygon fill="black" stroke="black" points="706.959,-214.533 716.501,-209.928 706.17,-207.577 706.959,-214.533"/>
</g>
<!-- backend2 -->
<g id="node19" class="node"><title>backend2</title>
<ellipse fill="lightblue" stroke="black" cx="941.186" cy="-253" rx="30.5947" ry="18"/>
<text text-anchor="middle" x="941.186" y="-249.3" font-family="Times,serif" font-size="14.00">about</text>
</g>
<!-- openwrt2&#45;&gt;backend2 -->
<g id="edge12" class="edge"><title>openwrt2&#45;&gt;backend2</title>
<path fill="none" stroke="black" d="M802.284,-258.161C832.939,-257.014 871.876,-255.556 900.552,-254.483"/>
<polygon fill="black" stroke="black" points="900.757,-257.978 910.619,-254.107 900.495,-250.983 900.757,-257.978"/>
</g>
<!-- debian2&#45;&gt;backend2 -->
<g id="edge13" class="edge"><title>debian2&#45;&gt;backend2</title>
<path fill="none" stroke="black" d="M784.87,-213.973C817.598,-222.197 868.6,-235.012 903.152,-243.694"/>
<polygon fill="black" stroke="black" points="902.319,-247.094 912.87,-246.136 904.025,-240.305 902.319,-247.094"/>
</g>
<!-- cmdline -->
<g id="node12" class="node"><title>cmdline</title>
<ellipse fill="none" stroke="black" cx="1120.48" cy="-250" rx="39.7935" ry="18"/>
<text text-anchor="middle" x="1120.48" y="-246.3" font-family="Times,serif" font-size="14.00">cmdline</text>
</g>
<!-- file -->
<g id="node13" class="node"><title>file</title>
<ellipse fill="none" stroke="black" cx="1120.48" cy="-304" rx="27" ry="18"/>
<text text-anchor="middle" x="1120.48" y="-300.3" font-family="Times,serif" font-size="14.00">file</text>
</g>
<!-- uci -->
<g id="node14" class="node"><title>uci</title>
<ellipse fill="none" stroke="black" cx="1120.48" cy="-34" rx="27" ry="18"/>
<text text-anchor="middle" x="1120.48" y="-30.3" font-family="Times,serif" font-size="14.00">uci</text>
</g>
<!-- augeas -->
<g id="node15" class="node"><title>augeas</title>
<ellipse fill="none" stroke="black" cx="1120.48" cy="-88" rx="34.394" ry="18"/>
<text text-anchor="middle" x="1120.48" y="-84.3" font-family="Times,serif" font-size="14.00">augeas</text>
</g>
<!-- systemd -->
<g id="node16" class="node"><title>systemd</title>
<ellipse fill="none" stroke="black" cx="1120.48" cy="-142" rx="40.0939" ry="18"/>
<text text-anchor="middle" x="1120.48" y="-138.3" font-family="Times,serif" font-size="14.00">systemd</text>
</g>
<!-- init_d -->
<g id="node17" class="node"><title>init_d</title>
<ellipse fill="none" stroke="black" cx="1120.48" cy="-196" rx="29.4969" ry="18"/>
<text text-anchor="middle" x="1120.48" y="-192.3" font-family="Times,serif" font-size="14.00">init.d</text>
</g>
<!-- backend1&#45;&gt;uci -->
<g id="edge14" class="edge"><title>backend1&#45;&gt;uci</title>
<path fill="none" stroke="black" d="M965.364,-87.8946C996.29,-77.0799 1051.23,-57.8659 1086.48,-45.5411"/>
<polygon fill="black" stroke="black" points="1088.01,-48.7122 1096.3,-42.1074 1085.7,-42.1046 1088.01,-48.7122"/>
</g>
<!-- backend1&#45;&gt;augeas -->
<g id="edge15" class="edge"><title>backend1&#45;&gt;augeas</title>
<path fill="none" stroke="black" d="M968.346,-94.8196C996.63,-93.5434 1042.18,-91.4881 1075.89,-89.967"/>
<polygon fill="black" stroke="black" points="1076.11,-93.4609 1085.94,-89.5136 1075.79,-86.468 1076.11,-93.4609"/>
</g>
<!-- backend1&#45;&gt;systemd -->
<g id="edge16" class="edge"><title>backend1&#45;&gt;systemd</title>
<path fill="none" stroke="black" d="M966.838,-102.396C994.897,-109.676 1041.27,-121.708 1075.55,-130.603"/>
<polygon fill="black" stroke="black" points="1074.77,-134.014 1085.32,-133.138 1076.52,-127.238 1074.77,-134.014"/>
</g>
<!-- backend1&#45;&gt;init_d -->
<g id="edge17" class="edge"><title>backend1&#45;&gt;init_d</title>
<path fill="none" stroke="black" d="M962.524,-107.471C993.584,-124.99 1053.03,-158.521 1089.19,-178.912"/>
<polygon fill="black" stroke="black" points="1087.85,-182.179 1098.28,-184.043 1091.29,-176.082 1087.85,-182.179"/>
</g>
<!-- backend2&#45;&gt;cmdline -->
<g id="edge19" class="edge"><title>backend2&#45;&gt;cmdline</title>
<path fill="none" stroke="black" d="M971.861,-252.498C998.697,-252.044 1038.73,-251.366 1070.34,-250.832"/>
<polygon fill="black" stroke="black" points="1070.76,-254.325 1080.7,-250.656 1070.64,-247.326 1070.76,-254.325"/>
</g>
<!-- backend2&#45;&gt;file -->
<g id="edge18" class="edge"><title>backend2&#45;&gt;file</title>
<path fill="none" stroke="black" d="M969.113,-260.746C1000.28,-269.711 1051.65,-284.487 1085.53,-294.233"/>
<polygon fill="black" stroke="black" points="1084.86,-297.682 1095.44,-297.083 1086.79,-290.955 1084.86,-297.682"/>
</g>
<!-- client1 -->
<g id="node20" class="node"><title>client1</title>
<ellipse fill="none" stroke="black" cx="30.5473" cy="-150" rx="30.5947" ry="18"/>
<text text-anchor="middle" x="30.5473" y="-146.3" font-family="Times,serif" font-size="14.00">client</text>
</g>
<!-- client1&#45;&gt;listener -->
<g id="edge5" class="edge"><title>client1&#45;&gt;listener</title>
<path fill="none" stroke="black" d="M61.1021,-150C81.413,-150 108.778,-150 131.881,-150"/>
<polygon fill="black" stroke="black" points="132.156,-153.5 142.156,-150 132.156,-146.5 132.156,-153.5"/>
</g>
<!-- client2 -->
<g id="node21" class="node"><title>client2</title>
<ellipse fill="none" stroke="black" cx="30.5473" cy="-96" rx="30.5947" ry="18"/>
<text text-anchor="middle" x="30.5473" y="-92.3" font-family="Times,serif" font-size="14.00">client</text>
</g>
<!-- client2&#45;&gt;sender -->
<g id="edge21" class="edge"><title>client2&#45;&gt;sender</title>
<path fill="none" stroke="black" d="M71.2534,-96C94.3095,-96 123.006,-96 144.776,-96"/>
<polygon fill="black" stroke="black" points="71.1022,-92.5001 61.1021,-96 71.1021,-99.5001 71.1022,-92.5001"/>
</g>
<!-- client3 -->
<g id="node22" class="node"><title>client3</title>
<ellipse fill="none" stroke="black" cx="30.5473" cy="-42" rx="30.5947" ry="18"/>
<text text-anchor="middle" x="30.5473" y="-38.3" font-family="Times,serif" font-size="14.00">client</text>
</g>
<!-- client3&#45;&gt;sender -->
<g id="edge22" class="edge"><title>client3&#45;&gt;sender</title>
<path fill="none" stroke="black" d="M66.3886,-54.8823C92.1543,-64.409 126.744,-77.1983 150.466,-85.9696"/>
<polygon fill="black" stroke="black" points="67.58,-51.5913 56.9868,-51.4061 65.1524,-58.1569 67.58,-51.5913"/>
</g>
<!-- bus_msg1 -->
<g id="node23" class="node"><title>bus_msg1</title>
<polygon fill="none" stroke="black" points="257.095,-584.5 100.095,-584.5 100.095,-531.5 257.095,-531.5 257.095,-584.5"/>
<text text-anchor="start" x="108.095" y="-569.3" font-family="Times,serif" font-size="14.00">call request:</text>
<text text-anchor="start" x="108.095" y="-554.3" font-family="Times,serif" font-size="14.00">foris&#45;controller&#45;about.get </text>
<text text-anchor="start" x="108.095" y="-539.3" font-family="Times,serif" font-size="14.00">{&#39;data&#39;: {}}</text>
</g>
<!-- router_msg1 -->
<g id="node24" class="node"><title>router_msg1</title>
<polygon fill="none" stroke="black" points="437.595,-607 321.595,-607 321.595,-509 437.595,-509 437.595,-607"/>
<text text-anchor="start" x="329.595" y="-591.8" font-family="Times,serif" font-size="14.00">{</text>
<text text-anchor="start" x="329.595" y="-576.8" font-family="Times,serif" font-size="14.00"> &#160;&#39;module&#39;: &#39;about&#39;,</text>
<text text-anchor="start" x="329.595" y="-561.8" font-family="Times,serif" font-size="14.00"> &#160;&#39;kind&#39;: &#39;request&#39;,</text>
<text text-anchor="start" x="329.595" y="-546.8" font-family="Times,serif" font-size="14.00"> &#160;&#39;action&#39;: &#160;&#39;get&#39;, </text>
<text text-anchor="start" x="329.595" y="-531.8" font-family="Times,serif" font-size="14.00"> &#160;&#39;data&#39;: {} </text>
<text text-anchor="start" x="329.595" y="-516.8" font-family="Times,serif" font-size="14.00">}</text>
</g>
<!-- bus_msg1&#45;&gt;router_msg1 -->
<g id="edge24" class="edge"><title>bus_msg1&#45;&gt;router_msg1</title>
<path fill="none" stroke="black" d="M257.103,-558C274.984,-558 293.862,-558 311.268,-558"/>
<polygon fill="black" stroke="black" points="311.328,-561.5 321.328,-558 311.327,-554.5 311.328,-561.5"/>
</g>
<!-- module_msg1 -->
<g id="node25" class="node"><title>module_msg1</title>
<polygon fill="none" stroke="black" points="631.595,-577 533.595,-577 533.595,-509 631.595,-509 631.595,-577"/>
<text text-anchor="start" x="541.595" y="-561.8" font-family="Times,serif" font-size="14.00">{</text>
<text text-anchor="start" x="541.595" y="-546.8" font-family="Times,serif" font-size="14.00"> &#160;&#39;action&#39;: &#39;get&#39;, </text>
<text text-anchor="start" x="541.595" y="-531.8" font-family="Times,serif" font-size="14.00"> &#160;&#39;data&#39;: {} </text>
<text text-anchor="start" x="541.595" y="-516.8" font-family="Times,serif" font-size="14.00">}</text>
</g>
<!-- router_msg1&#45;&gt;module_msg1 -->
<g id="edge25" class="edge"><title>router_msg1&#45;&gt;module_msg1</title>
<path fill="none" stroke="black" d="M437.655,-553.742C464.516,-551.737 496.504,-549.35 523.495,-547.336"/>
<polygon fill="black" stroke="black" points="523.862,-550.818 533.574,-546.584 523.341,-543.838 523.862,-550.818"/>
</g>
<!-- backend_msg1 -->
<g id="node26" class="node"><title>backend_msg1</title>
<polygon fill="none" stroke="black" points="1004.69,-487.5 877.686,-487.5 877.686,-434.5 1004.69,-434.5 1004.69,-487.5"/>
<text text-anchor="start" x="885.686" y="-472.3" font-family="Times,serif" font-size="14.00">get_temperature() </text>
<text text-anchor="start" x="885.686" y="-457.3" font-family="Times,serif" font-size="14.00">get_serial_number()</text>
<text text-anchor="start" x="885.686" y="-442.3" font-family="Times,serif" font-size="14.00"> ...</text>
</g>
<!-- module_msg1&#45;&gt;backend_msg1 -->
<g id="edge26" class="edge"><title>module_msg1&#45;&gt;backend_msg1</title>
<path fill="none" stroke="black" d="M631.686,-531.941C692.296,-518.004 797.043,-493.916 867.459,-477.724"/>
<polygon fill="black" stroke="black" points="868.628,-481.047 877.589,-475.394 867.059,-474.225 868.628,-481.047"/>
</g>
<!-- module_msg_back1 -->
<g id="node27" class="node"><title>module_msg_back1</title>
<polygon fill="none" stroke="black" points="666.095,-484 499.095,-484 499.095,-356 666.095,-356 666.095,-484"/>
<text text-anchor="start" x="507.095" y="-468.8" font-family="Times,serif" font-size="14.00">{</text>
<text text-anchor="start" x="507.095" y="-453.8" font-family="Times,serif" font-size="14.00"> &#160;&#39;action&#39;: &#39;get&#39;, </text>
<text text-anchor="start" x="507.095" y="-438.8" font-family="Times,serif" font-size="14.00"> &#160;&#39;data&#39;: { </text>
<text text-anchor="start" x="507.095" y="-423.8" font-family="Times,serif" font-size="14.00"> &#160;&#160;&#160;&#160;&#39;temperature&#39;: 28, </text>
<text text-anchor="start" x="507.095" y="-408.8" font-family="Times,serif" font-size="14.00"> &#160;&#160;&#160;&#160;&#39;serial_number&#39;: &#39;XXX&#39;, </text>
<text text-anchor="start" x="507.095" y="-393.8" font-family="Times,serif" font-size="14.00"> &#160;&#160;&#160;&#160;...</text>
<text text-anchor="start" x="507.095" y="-378.8" font-family="Times,serif" font-size="14.00"> &#160;} </text>
<text text-anchor="start" x="507.095" y="-363.8" font-family="Times,serif" font-size="14.00">}</text>
</g>
<!-- backend_msg1&#45;&gt;module_msg_back1 -->
<g id="edge27" class="edge"><title>backend_msg1&#45;&gt;module_msg_back1</title>
<path fill="none" stroke="black" d="M877.409,-453.782C821.697,-447.376 739.561,-437.933 676.286,-430.657"/>
<polygon fill="black" stroke="black" points="676.634,-427.175 666.3,-429.509 675.835,-434.129 676.634,-427.175"/>
</g>
<!-- router_msg_back1 -->
<g id="node28" class="node"><title>router_msg_back1</title>
<polygon fill="none" stroke="black" points="463.095,-491 296.095,-491 296.095,-333 463.095,-333 463.095,-491"/>
<text text-anchor="start" x="304.095" y="-475.8" font-family="Times,serif" font-size="14.00">{</text>
<text text-anchor="start" x="304.095" y="-460.8" font-family="Times,serif" font-size="14.00"> &#160;&#39;module&#39;: &#39;about&#39;,</text>
<text text-anchor="start" x="304.095" y="-445.8" font-family="Times,serif" font-size="14.00"> &#160;&#39;kind&#39;: &#39;reply&#39;,</text>
<text text-anchor="start" x="304.095" y="-430.8" font-family="Times,serif" font-size="14.00"> &#160;&#39;action&#39;: &#39;get&#39;, </text>
<text text-anchor="start" x="304.095" y="-415.8" font-family="Times,serif" font-size="14.00"> &#160;&#39;data&#39;: { </text>
<text text-anchor="start" x="304.095" y="-400.8" font-family="Times,serif" font-size="14.00"> &#160;&#160;&#160;&#160;&#39;temperature&#39;: 28, </text>
<text text-anchor="start" x="304.095" y="-385.8" font-family="Times,serif" font-size="14.00"> &#160;&#160;&#160;&#160;&#39;serial_number&#39;: &#39;XXX&#39;, </text>
<text text-anchor="start" x="304.095" y="-370.8" font-family="Times,serif" font-size="14.00"> &#160;&#160;&#160;&#160;...</text>
<text text-anchor="start" x="304.095" y="-355.8" font-family="Times,serif" font-size="14.00"> &#160;} </text>
<text text-anchor="start" x="304.095" y="-340.8" font-family="Times,serif" font-size="14.00">}</text>
</g>
<!-- module_msg_back1&#45;&gt;router_msg_back1 -->
<g id="edge28" class="edge"><title>module_msg_back1&#45;&gt;router_msg_back1</title>
<path fill="none" stroke="black" d="M498.966,-416.711C490.483,-416.374 481.825,-416.029 473.243,-415.687"/>
<polygon fill="black" stroke="black" points="473.35,-412.189 463.219,-415.289 473.072,-419.184 473.35,-412.189"/>
</g>
<!-- bus_msg_back1 -->
<g id="node29" class="node"><title>bus_msg_back1</title>
<polygon fill="none" stroke="black" points="260.095,-483.5 97.0946,-483.5 97.0946,-340.5 260.095,-340.5 260.095,-483.5"/>
<text text-anchor="start" x="105.095" y="-468.3" font-family="Times,serif" font-size="14.00">call reply:</text>
<text text-anchor="start" x="105.095" y="-453.3" font-family="Times,serif" font-size="14.00">foris&#45;controller&#45;about.get </text>
<text text-anchor="start" x="105.095" y="-438.3" font-family="Times,serif" font-size="14.00">{</text>
<text text-anchor="start" x="105.095" y="-423.3" font-family="Times,serif" font-size="14.00"> &#160;&#39;data&#39;: {</text>
<text text-anchor="start" x="105.095" y="-408.3" font-family="Times,serif" font-size="14.00"> &#160;&#160;&#160;&#39;temperature&#39;: 28, </text>
<text text-anchor="start" x="105.095" y="-393.3" font-family="Times,serif" font-size="14.00"> &#160;&#160;&#160;&#39;serial_number&#39;: &#39;XXX&#39;, </text>
<text text-anchor="start" x="105.095" y="-378.3" font-family="Times,serif" font-size="14.00"> &#160;&#160;&#160;...</text>
<text text-anchor="start" x="105.095" y="-363.3" font-family="Times,serif" font-size="14.00"> &#160;}</text>
<text text-anchor="start" x="105.095" y="-348.3" font-family="Times,serif" font-size="14.00">}</text>
</g>
<!-- router_msg_back1&#45;&gt;bus_msg_back1 -->
<g id="edge29" class="edge"><title>router_msg_back1&#45;&gt;bus_msg_back1</title>
<path fill="none" stroke="black" d="M295.883,-412C287.505,-412 278.965,-412 270.507,-412"/>
<polygon fill="black" stroke="black" points="270.249,-408.5 260.249,-412 270.249,-415.5 270.249,-408.5"/>
</g>
<!-- bus_msg2 -->
<g id="node30" class="node"><title>bus_msg2</title>
<polygon fill="none" stroke="black" points="259.095,-1030 98.0946,-1030 98.0946,-902 259.095,-902 259.095,-1030"/>
<text text-anchor="start" x="106.095" y="-1014.8" font-family="Times,serif" font-size="14.00">call request:</text>
<text text-anchor="start" x="106.095" y="-999.8" font-family="Times,serif" font-size="14.00">foris&#45;controller&#45;dns.set </text>
<text text-anchor="start" x="106.095" y="-984.8" font-family="Times,serif" font-size="14.00">{</text>
<text text-anchor="start" x="106.095" y="-969.8" font-family="Times,serif" font-size="14.00"> &#160;&#39;data&#39;: {</text>
<text text-anchor="start" x="106.095" y="-954.8" font-family="Times,serif" font-size="14.00"> &#160;&#160;&#160;&#39;dnssec_enabled&#39;: False,</text>
<text text-anchor="start" x="106.095" y="-939.8" font-family="Times,serif" font-size="14.00"> &#160;&#160;&#160;...</text>
<text text-anchor="start" x="106.095" y="-924.8" font-family="Times,serif" font-size="14.00"> &#160;}</text>
<text text-anchor="start" x="106.095" y="-909.8" font-family="Times,serif" font-size="14.00">}</text>
</g>
<!-- router_msg2 -->
<g id="node31" class="node"><title>router_msg2</title>
<polygon fill="none" stroke="black" points="460.095,-1037.5 299.095,-1037.5 299.095,-894.5 460.095,-894.5 460.095,-1037.5"/>
<text text-anchor="start" x="307.095" y="-1022.3" font-family="Times,serif" font-size="14.00">{</text>
<text text-anchor="start" x="307.095" y="-1007.3" font-family="Times,serif" font-size="14.00"> &#160;&#39;module&#39;: &#39;dns&#39;,</text>
<text text-anchor="start" x="307.095" y="-992.3" font-family="Times,serif" font-size="14.00"> &#160;&#39;kind&#39;: &#39;request&#39;,</text>
<text text-anchor="start" x="307.095" y="-977.3" font-family="Times,serif" font-size="14.00"> &#160;&#39;action&#39;: &#160;&#39;set&#39;, </text>
<text text-anchor="start" x="307.095" y="-962.3" font-family="Times,serif" font-size="14.00"> &#160;&#39;data&#39;: {</text>
<text text-anchor="start" x="307.095" y="-947.3" font-family="Times,serif" font-size="14.00"> &#160;&#160;&#160;&#39;dnssec_enabled&#39;: False,</text>
<text text-anchor="start" x="307.095" y="-932.3" font-family="Times,serif" font-size="14.00"> &#160;&#160;&#160;...</text>
<text text-anchor="start" x="307.095" y="-917.3" font-family="Times,serif" font-size="14.00"> &#160;}</text>
<text text-anchor="start" x="307.095" y="-902.3" font-family="Times,serif" font-size="14.00">} </text>
</g>
<!-- bus_msg2&#45;&gt;router_msg2 -->
<g id="edge30" class="edge"><title>bus_msg2&#45;&gt;router_msg2</title>
<path fill="none" stroke="black" d="M259.103,-966C268.825,-966 278.813,-966 288.674,-966"/>
<polygon fill="black" stroke="black" points="288.888,-969.5 298.888,-966 288.888,-962.5 288.888,-969.5"/>
</g>
<!-- module_msg2 -->
<g id="node32" class="node"><title>module_msg2</title>
<polygon fill="none" stroke="black" points="663.095,-1007.5 502.095,-1007.5 502.095,-894.5 663.095,-894.5 663.095,-1007.5"/>
<text text-anchor="start" x="510.095" y="-992.3" font-family="Times,serif" font-size="14.00">{</text>
<text text-anchor="start" x="510.095" y="-977.3" font-family="Times,serif" font-size="14.00"> &#160;&#39;action&#39;: &#160;&#39;set&#39;, </text>
<text text-anchor="start" x="510.095" y="-962.3" font-family="Times,serif" font-size="14.00"> &#160;&#39;data&#39;: {</text>
<text text-anchor="start" x="510.095" y="-947.3" font-family="Times,serif" font-size="14.00"> &#160;&#160;&#160;&#39;dnssec_enabled&#39;: False,</text>
<text text-anchor="start" x="510.095" y="-932.3" font-family="Times,serif" font-size="14.00"> &#160;&#160;&#160;...</text>
<text text-anchor="start" x="510.095" y="-917.3" font-family="Times,serif" font-size="14.00"> &#160;}</text>
<text text-anchor="start" x="510.095" y="-902.3" font-family="Times,serif" font-size="14.00">} </text>
</g>
<!-- router_msg2&#45;&gt;module_msg2 -->
<g id="edge31" class="edge"><title>router_msg2&#45;&gt;module_msg2</title>
<path fill="none" stroke="black" d="M460.324,-960.05C470.706,-959.275 481.398,-958.477 491.929,-957.691"/>
<polygon fill="black" stroke="black" points="492.25,-961.177 501.962,-956.943 491.729,-954.197 492.25,-961.177"/>
</g>
<!-- backend_msg2 -->
<g id="node33" class="node"><title>backend_msg2</title>
<polygon fill="none" stroke="black" points="1044.19,-875 838.186,-875 838.186,-837 1044.19,-837 1044.19,-875"/>
<text text-anchor="start" x="846.186" y="-859.8" font-family="Times,serif" font-size="14.00">set_dns(dnssec_enabled=False, ...)</text>
<text text-anchor="start" x="846.186" y="-844.8" font-family="Times,serif" font-size="14.00"> ...</text>
</g>
<!-- module_msg2&#45;&gt;backend_msg2 -->
<g id="edge32" class="edge"><title>module_msg2&#45;&gt;backend_msg2</title>
<path fill="none" stroke="black" d="M663.177,-929.798C721.389,-914.29 800.1,-893.32 858.742,-877.697"/>
<polygon fill="black" stroke="black" points="859.949,-880.998 868.711,-875.042 858.147,-874.234 859.949,-880.998"/>
</g>
<!-- module_msg_back2 -->
<g id="node34" class="node"><title>module_msg_back2</title>
<polygon fill="none" stroke="black" points="636.095,-861 529.095,-861 529.095,-763 636.095,-763 636.095,-861"/>
<text text-anchor="start" x="537.095" y="-845.8" font-family="Times,serif" font-size="14.00">{</text>
<text text-anchor="start" x="537.095" y="-830.8" font-family="Times,serif" font-size="14.00"> &#160;&#39;action&#39;: &#39;set&#39;, </text>
<text text-anchor="start" x="537.095" y="-815.8" font-family="Times,serif" font-size="14.00"> &#160;&#39;data&#39;: { </text>
<text text-anchor="start" x="537.095" y="-800.8" font-family="Times,serif" font-size="14.00"> &#160;&#160;&#160;&#160;&#39;result&#39;: True,</text>
<text text-anchor="start" x="537.095" y="-785.8" font-family="Times,serif" font-size="14.00"> &#160;} </text>
<text text-anchor="start" x="537.095" y="-770.8" font-family="Times,serif" font-size="14.00">}</text>
</g>
<!-- backend_msg2&#45;&gt;module_msg_back2 -->
<g id="edge33" class="edge"><title>backend_msg2&#45;&gt;module_msg_back2</title>
<path fill="none" stroke="black" d="M837.889,-843.378C775.999,-835.741 699.078,-826.25 646.137,-819.717"/>
<polygon fill="black" stroke="black" points="646.564,-816.243 636.211,-818.492 645.707,-823.191 646.564,-816.243"/>
</g>
<!-- router_msg_back2 -->
<g id="node35" class="node"><title>router_msg_back2</title>
<polygon fill="none" stroke="black" points="433.095,-876 326.095,-876 326.095,-748 433.095,-748 433.095,-876"/>
<text text-anchor="start" x="334.095" y="-860.8" font-family="Times,serif" font-size="14.00">{</text>
<text text-anchor="start" x="334.095" y="-845.8" font-family="Times,serif" font-size="14.00"> &#160;&#39;module&#39;: &#39;dns&#39;,</text>
<text text-anchor="start" x="334.095" y="-830.8" font-family="Times,serif" font-size="14.00"> &#160;&#39;kind&#39;: &#39;reply&#39;,</text>
<text text-anchor="start" x="334.095" y="-815.8" font-family="Times,serif" font-size="14.00"> &#160;&#39;action&#39;: &#39;set&#39;, </text>
<text text-anchor="start" x="334.095" y="-800.8" font-family="Times,serif" font-size="14.00"> &#160;&#39;data&#39;: { </text>
<text text-anchor="start" x="334.095" y="-785.8" font-family="Times,serif" font-size="14.00"> &#160;&#160;&#160;&#160;&#39;result&#39;: True,</text>
<text text-anchor="start" x="334.095" y="-770.8" font-family="Times,serif" font-size="14.00"> &#160;} </text>
<text text-anchor="start" x="334.095" y="-755.8" font-family="Times,serif" font-size="14.00">}</text>
</g>
<!-- module_msg_back2&#45;&gt;router_msg_back2 -->
<g id="edge34" class="edge"><title>module_msg_back2&#45;&gt;router_msg_back2</title>
<path fill="none" stroke="black" d="M529.005,-812C502.801,-812 470.924,-812 443.44,-812"/>
<polygon fill="black" stroke="black" points="443.142,-808.5 433.142,-812 443.142,-815.5 443.142,-808.5"/>
</g>
<!-- bus_msg_notify -->
<g id="node37" class="node"><title>bus_msg_notify</title>
<polygon fill="none" stroke="black" points="259.095,-745.5 98.0946,-745.5 98.0946,-602.5 259.095,-602.5 259.095,-745.5"/>
<text text-anchor="start" x="106.095" y="-730.3" font-family="Times,serif" font-size="14.00">call notify:</text>
<text text-anchor="start" x="106.095" y="-715.3" font-family="Times,serif" font-size="14.00">foris&#45;controller&#45;about </text>
<text text-anchor="start" x="106.095" y="-700.3" font-family="Times,serif" font-size="14.00">{</text>
<text text-anchor="start" x="106.095" y="-685.3" font-family="Times,serif" font-size="14.00"> &#160;&#39;action&#39;: &#39;get&#39;, &#160;</text>
<text text-anchor="start" x="106.095" y="-670.3" font-family="Times,serif" font-size="14.00"> &#160;&#39;data&#39;: {</text>
<text text-anchor="start" x="106.095" y="-655.3" font-family="Times,serif" font-size="14.00"> &#160;&#160;&#160;&#39;dnssec_enabled&#39;: False,</text>
<text text-anchor="start" x="106.095" y="-640.3" font-family="Times,serif" font-size="14.00"> &#160;&#160;&#160;...</text>
<text text-anchor="start" x="106.095" y="-625.3" font-family="Times,serif" font-size="14.00"> &#160;}</text>
<text text-anchor="start" x="106.095" y="-610.3" font-family="Times,serif" font-size="14.00">}</text>
</g>
<!-- module_msg_back2&#45;&gt;bus_msg_notify -->
<g id="edge36" class="edge"><title>module_msg_back2&#45;&gt;bus_msg_notify</title>
<path fill="none" stroke="black" d="M529.007,-774.485C509.117,-761.696 485.79,-748.296 463.095,-739 400.72,-713.451 326.313,-696.874 269.381,-686.858"/>
<polygon fill="black" stroke="black" points="269.77,-683.373 259.321,-685.124 268.581,-690.272 269.77,-683.373"/>
</g>
<!-- bus_msg_back2 -->
<g id="node36" class="node"><title>bus_msg_back2</title>
<polygon fill="none" stroke="black" points="256.095,-876.5 101.095,-876.5 101.095,-763.5 256.095,-763.5 256.095,-876.5"/>
<text text-anchor="start" x="109.095" y="-861.3" font-family="Times,serif" font-size="14.00">call reply:</text>
<text text-anchor="start" x="109.095" y="-846.3" font-family="Times,serif" font-size="14.00">foris&#45;controller&#45;about.set </text>
<text text-anchor="start" x="109.095" y="-831.3" font-family="Times,serif" font-size="14.00">{</text>
<text text-anchor="start" x="109.095" y="-816.3" font-family="Times,serif" font-size="14.00"> &#160;&#39;data&#39;: {</text>
<text text-anchor="start" x="109.095" y="-801.3" font-family="Times,serif" font-size="14.00"> &#160;&#160;&#160;&#39;result&#39;: True,</text>
<text text-anchor="start" x="109.095" y="-786.3" font-family="Times,serif" font-size="14.00"> &#160;}</text>
<text text-anchor="start" x="109.095" y="-771.3" font-family="Times,serif" font-size="14.00">}</text>
</g>
<!-- router_msg_back2&#45;&gt;bus_msg_back2 -->
<g id="edge35" class="edge"><title>router_msg_back2&#45;&gt;bus_msg_back2</title>
<path fill="none" stroke="black" d="M326.014,-814.114C307.748,-814.848 286.745,-815.692 266.455,-816.508"/>
<polygon fill="black" stroke="black" points="266.1,-813.019 256.249,-816.918 266.381,-820.014 266.1,-813.019"/>
</g>
</g>
</svg>
